<svg width="19" height="13" viewBox="0 0 19 13" fill="none" xmlns="http://www.w3.org/2000/svg">
<path id="Cellular Connection" fill-rule="evenodd" clip-rule="evenodd" d="M18.3206 1.2251C18.3206 0.603777 17.8649 0.100098 17.3028 0.100098H16.285C15.7229 0.100098 15.2672 0.603777 15.2672 1.2251V10.9751C15.2672 11.5964 15.7229 12.1001 16.285 12.1001H17.3028C17.8649 12.1001 18.3206 11.5964 18.3206 10.9751V1.2251ZM11.2277 2.5001H12.2455C12.8077 2.5001 13.2634 3.01587 13.2634 3.6521V10.9481C13.2634 11.5843 12.8077 12.1001 12.2455 12.1001H11.2277C10.6656 12.1001 10.2099 11.5843 10.2099 10.9481V3.6521C10.2099 3.01587 10.6656 2.5001 11.2277 2.5001ZM7.09288 5.1001H6.07506C5.51294 5.1001 5.05725 5.62243 5.05725 6.26676V10.9334C5.05725 11.5778 5.51294 12.1001 6.07506 12.1001H7.09288C7.655 12.1001 8.11069 11.5778 8.11069 10.9334V6.26676C8.11069 5.62243 7.655 5.1001 7.09288 5.1001ZM2.03562 7.5001H1.01781C0.45569 7.5001 0 8.01497 0 8.6501V10.9501C0 11.5852 0.45569 12.1001 1.01781 12.1001H2.03562C2.59775 12.1001 3.05344 11.5852 3.05344 10.9501V8.6501C3.05344 8.01497 2.59775 7.5001 2.03562 7.5001Z" fill="white"/>
</svg>
