<svg width="22" height="22" viewBox="0 0 22 22" fill="none" xmlns="http://www.w3.org/2000/svg">
<g id="Home" clip-path="url(#clip0_1663_182)">
<g id="Group">
<path id="Vector" d="M15.5521 19.1401H4.62298C3.80767 19.1401 3.14433 18.4318 3.14433 17.5611L3.14433 8.46891C3.14433 8.1656 3.37458 7.91968 3.65864 7.91968C3.9427 7.91968 4.17296 8.1656 4.17296 8.46891V17.5611C4.17296 17.8261 4.37482 18.0416 4.62298 18.0416H15.5521C15.8002 18.0416 16.0021 17.8261 16.0021 17.5611V8.46891C16.0021 8.1656 16.2324 7.91968 16.5164 7.91968C16.8005 7.91968 17.0307 8.1656 17.0307 8.46891V17.5611C17.0307 18.4317 16.3674 19.1401 15.5521 19.1401Z" fill="white" stroke="white" stroke-width="0.437956"/>
<path id="Vector_2" d="M18.7099 11.4233C18.5628 11.4233 18.4157 11.3626 18.3034 11.2412L11.1545 3.50855C10.5662 2.87218 9.60899 2.87218 9.02067 3.50855L1.8718 11.2412C1.64733 11.4841 1.28336 11.4841 1.05889 11.2412C0.834393 10.9984 0.834393 10.6047 1.05889 10.362L8.20776 2.62922C9.24431 1.50803 10.9309 1.50803 11.9674 2.62922L19.1163 10.3619C19.3408 10.6047 19.3408 10.9984 19.1163 11.2412C19.0041 11.3626 18.857 11.4233 18.7099 11.4233Z" fill="white" stroke="white" stroke-width="0.437956"/>
</g>
</g>
<defs>
<clipPath id="clip0_1663_182">
<rect width="21.0219" height="21.0219" fill="white" transform="translate(0.0146484 0.0366211)"/>
</clipPath>
</defs>
</svg>
