<svg width="18" height="19" viewBox="0 0 18 19" fill="none" xmlns="http://www.w3.org/2000/svg">
<g id="Lock">
<path id="Vector" d="M13.0444 7.26649H12.5654V5.35043C12.5654 3.23696 10.8468 1.51831 8.73329 1.51831C6.61983 1.51831 4.90117 3.23696 4.90117 5.35043V7.26649H4.42216C3.63019 7.26649 2.98512 7.91086 2.98512 8.70353V15.4097C2.98512 16.2024 3.63019 16.8468 4.42216 16.8468H13.0444C13.8364 16.8468 14.4815 16.2024 14.4815 15.4097V8.70353C14.4815 7.91086 13.8364 7.26649 13.0444 7.26649ZM6.17858 5.35043C6.17858 3.94145 7.32431 2.79572 8.73329 2.79572C10.1423 2.79572 11.288 3.94145 11.288 5.35043V7.26649H6.17858V5.35043Z" fill="white"/>
</g>
</svg>
