<svg width="22" height="22" viewBox="0 0 22 22" fill="none" xmlns="http://www.w3.org/2000/svg">
<g id="More">
<path id="more_vert" d="M10.2427 14.5713C10.5986 14.2155 11.0092 14.0376 11.4745 14.0376C11.9398 14.0376 12.3504 14.2155 12.7062 14.5713C13.0621 14.9272 13.24 15.3377 13.24 15.8031C13.24 16.2684 13.0621 16.679 12.7062 17.0348C12.3504 17.3907 11.9398 17.5686 11.4745 17.5686C11.0092 17.5686 10.5986 17.3907 10.2427 17.0348C9.8869 16.679 9.70898 16.2684 9.70898 15.8031C9.70898 15.3377 9.8869 14.9272 10.2427 14.5713ZM10.2427 9.31585C10.5986 8.96001 11.0092 8.78209 11.4745 8.78209C11.9398 8.78209 12.3504 8.96001 12.7062 9.31585C13.0621 9.67168 13.24 10.0823 13.24 10.5476C13.24 11.0129 13.0621 11.4235 12.7062 11.7793C12.3504 12.1352 11.9398 12.3131 11.4745 12.3131C11.0092 12.3131 10.5986 12.1352 10.2427 11.7793C9.8869 11.4235 9.70898 11.0129 9.70898 10.5476C9.70898 10.0823 9.8869 9.67168 10.2427 9.31585ZM12.7062 6.52387C12.3504 6.87971 11.9398 7.05763 11.4745 7.05763C11.0092 7.05763 10.5986 6.87971 10.2427 6.52387C9.8869 6.16803 9.70898 5.75745 9.70898 5.29212C9.70898 4.82679 9.8869 4.41621 10.2427 4.06037C10.5986 3.70453 11.0092 3.52661 11.4745 3.52661C11.9398 3.52661 12.3504 3.70453 12.7062 4.06037C13.0621 4.41621 13.24 4.82679 13.24 5.29212C13.24 5.75745 13.0621 6.16803 12.7062 6.52387Z" fill="white"/>
</g>
</svg>
