<svg width="17" height="13" viewBox="0 0 17 13" fill="none" xmlns="http://www.w3.org/2000/svg">
<path id="Wifi" fill-rule="evenodd" clip-rule="evenodd" d="M8.65577 2.62056C11.029 2.62066 13.3114 3.52567 15.0314 5.14853C15.1609 5.27382 15.3679 5.27224 15.4955 5.14499L16.7335 3.90492C16.7981 3.84038 16.8341 3.75295 16.8336 3.66198C16.8331 3.57102 16.796 3.48402 16.7307 3.42023C12.2164 -0.873475 5.09448 -0.873475 0.580158 3.42023C0.514764 3.48397 0.477661 3.57095 0.477058 3.66191C0.476455 3.75288 0.512402 3.84033 0.576945 3.90492L1.81537 5.14499C1.94284 5.27243 2.15002 5.27402 2.27946 5.14853C3.99963 3.52556 6.28234 2.62055 8.65577 2.62056ZM8.65407 6.76268C9.94922 6.7626 11.1982 7.26486 12.1582 8.17188C12.288 8.3006 12.4926 8.29781 12.6192 8.16559L13.8475 6.87071C13.9122 6.80279 13.9481 6.71065 13.9471 6.61491C13.9462 6.51916 13.9085 6.4278 13.8425 6.36127C10.919 3.52396 6.3916 3.52396 3.4681 6.36127C3.40206 6.4278 3.36438 6.51921 3.36352 6.61498C3.36265 6.71076 3.39867 6.80289 3.46349 6.87071L4.69146 8.16559C4.81803 8.29781 5.02258 8.3006 5.15243 8.17188C6.11183 7.26546 7.35977 6.76324 8.65407 6.76268ZM11.0606 9.5045C11.0625 9.6079 11.0271 9.70759 10.9629 9.78003L8.88592 12.1893C8.82504 12.2601 8.74203 12.3 8.65542 12.3C8.5688 12.3 8.4858 12.2601 8.42491 12.1893L6.3476 9.78003C6.28342 9.70753 6.24812 9.60781 6.25002 9.50441C6.25193 9.40101 6.29087 9.3031 6.35765 9.23379C7.68408 7.94423 9.62676 7.94423 10.9532 9.23379C11.0199 9.30315 11.0588 9.4011 11.0606 9.5045Z" fill="white"/>
</svg>
